<?xml version="1.0" encoding="UTF-8" standalone="no"?>
<svg width="1110" height="430" viewBox="230 220 1110 430" fill="none" xmlns="http://www.w3.org/2000/svg">
  <defs>
    <linearGradient id="cardGrad" x1="260" y1="300" x2="560" y2="650" gradientUnits="userSpaceOnUse">
      <stop offset="0%" stop-color="#FFBE1B"/>
      <stop offset="55%" stop-color="#FF8E1C"/>
      <stop offset="100%" stop-color="#FF5A1F"/>
    </linearGradient>
    <linearGradient id="rocketGrad" x1="450" y1="245" x2="600" y2="360" gradientUnits="userSpaceOnUse">
      <stop offset="0%" stop-color="#FF6B1D"/>
      <stop offset="100%" stop-color="#FF3D1F"/>
    </linearGradient>
    <linearGradient id="peelGrad" x1="475" y1="540" x2="560" y2="630" gradientUnits="userSpaceOnUse">
      <stop offset="0%" stop-color="#FFF5F0"/>
      <stop offset="100%" stop-color="#F1C8BC"/>
    </linearGradient>
    <filter id="softShadow" x="230" y="220" width="380" height="430" filterUnits="userSpaceOnUse">
      <feDropShadow dx="0" dy="14" stdDeviation="20" flood-color="#000000" flood-opacity="0.12"/>
    </filter>
    <style>
      .brand { font-family: Inter, ui-sans-serif, system-ui, -apple-system, BlinkMacSystemFont, "Segoe UI", Arial, sans-serif; }
    </style>
  </defs>

  <g filter="url(#softShadow)">
    <rect x="285" y="380" width="250" height="250" rx="34" fill="url(#cardGrad)"/>
  </g>

  <path d="M285 420C285 397.909 302.909 380 325 380H490L455 413C438 429 415 438 391 438H285V420Z" fill="#FFAB1D"/>
  <path d="M285 580L285 515C334 515 382 529 424 557L469 587C422 618 372 630 322 630H319C300.222 630 285 614.778 285 596V580Z" fill="#FF8C1D"/>
  <path d="M486 551H535V600C535 616.569 521.569 630 505 630H455L486 599C500 585 508 568 508 549V547C508 549.209 507.105 551 486 551Z" fill="url(#peelGrad)"/>

  <path d="M351 468L357.5 482.5L372 489L357.5 495.5L351 510L344.5 495.5L330 489L344.5 482.5L351 468Z" fill="white"/>

  <g transform="translate(0,-6)">
    <path d="M466 432C469 393 497 347 546 329C563 323 578 339 573 357C559 407 520 437 481 440L466 432Z" fill="url(#rocketGrad)"/>
    <path d="M499 357C516 339 538 325 562 318C574 315 584 325 582 337C577 361 565 383 548 400L499 357Z" fill="#FF5B1F"/>
    <ellipse cx="544" cy="348" rx="16" ry="16" fill="white" opacity="0.96"/>
    <path d="M477 411L455 435L463 402L477 411Z" fill="white"/>
    <path d="M493 425L478 456L508 442L493 425Z" fill="white"/>
    <path d="M480 440L468 463C485 461 500 455 513 446L480 440Z" fill="#FFFFFF"/>
    <path d="M470 409C475 401 483 392 492 385" stroke="white" stroke-width="8" stroke-linecap="round"/>
  </g>

  <path d="M456 425C415 448 381 482 349 538" stroke="white" stroke-width="8" stroke-linecap="round" opacity="0.96"/>
  <path d="M466 432C430 456 401 488 375 545" stroke="white" stroke-width="12" stroke-linecap="round" opacity="0.96"/>
  <path d="M478 440C442 462 414 490 391 539" stroke="white" stroke-width="7" stroke-linecap="round" opacity="0.96"/>

  <g class="brand">
    <text x="670" y="495" font-size="132" font-weight="800" fill="#1E171A">Founder</text>
    <text x="670" y="620" font-size="132" font-weight="800" fill="#FF8619">Content</text>
  </g>
</svg>
